<svg width="26" height="24" viewBox="0 0 26 24" fill="none" xmlns="http://www.w3.org/2000/svg">
<g id="fluent:password-24-regular">
<path id="Vector" d="M12.8131 10.22C12.6601 10.0875 12.4577 10.0154 12.2486 10.0188C12.0394 10.0223 11.8399 10.101 11.692 10.2384C11.5441 10.3758 11.4594 10.5612 11.4557 10.7555C11.452 10.9498 11.5297 11.1378 11.6723 11.28L12.4471 12L11.6723 12.72C11.5929 12.7887 11.5293 12.8715 11.4852 12.9635C11.4411 13.0555 11.4174 13.1548 11.4155 13.2555C11.4136 13.3562 11.4335 13.4562 11.4741 13.5496C11.5147 13.643 11.5751 13.7278 11.6518 13.799C11.7284 13.8703 11.8197 13.9264 11.9202 13.9641C12.0207 14.0018 12.1284 14.0204 12.2368 14.0186C12.3451 14.0168 12.452 13.9948 12.551 13.9538C12.6501 13.9128 12.7392 13.8537 12.8131 13.78L13.588 13.06L14.3629 13.78C14.5144 13.9206 14.7199 13.9994 14.934 13.9992C15.1482 13.9991 15.3535 13.9198 15.5048 13.779C15.656 13.6382 15.7409 13.4473 15.7407 13.2483C15.7405 13.0493 15.6553 12.8586 15.5037 12.718L14.7299 12L15.5048 11.28C15.5818 11.2108 15.6433 11.128 15.6855 11.0365C15.7278 10.945 15.75 10.8465 15.7509 10.7469C15.7518 10.6474 15.7313 10.5486 15.6907 10.4565C15.65 10.3643 15.59 10.2806 15.5142 10.2102C15.4384 10.1398 15.3482 10.0842 15.249 10.0465C15.1498 10.0088 15.0435 9.9899 14.9363 9.99081C14.8292 9.99173 14.7233 10.0125 14.6248 10.0518C14.5263 10.0912 14.4373 10.1483 14.3629 10.22L13.588 10.94L12.8131 10.22ZM5.7529 10.22C5.90424 10.0795 6.1094 10.0007 6.32331 10.0007C6.53721 10.0007 6.74237 10.0795 6.89372 10.22L7.66862 10.94L8.44351 10.22C8.51741 10.1463 8.60652 10.0872 8.70554 10.0462C8.80455 10.0052 8.91144 9.98318 9.01982 9.98141C9.1282 9.97963 9.23586 9.99816 9.33636 10.0359C9.43687 10.0736 9.52818 10.1297 9.60482 10.201C9.68147 10.2722 9.7419 10.357 9.7825 10.4504C9.82309 10.5438 9.84303 10.6438 9.84112 10.7445C9.83921 10.8452 9.81548 10.9445 9.77137 11.0365C9.72725 11.1285 9.66364 11.2113 9.58433 11.28L8.81051 12L9.58541 12.718C9.66046 12.7877 9.72001 12.8704 9.76065 12.9614C9.80129 13.0525 9.82224 13.1501 9.82229 13.2486C9.82234 13.3472 9.80149 13.4448 9.76094 13.5359C9.72039 13.627 9.66093 13.7098 9.58595 13.7795C9.51097 13.8492 9.42195 13.9046 9.32395 13.9423C9.22596 13.9801 9.12093 13.9995 9.01484 13.9996C8.90876 13.9996 8.8037 13.9803 8.70567 13.9426C8.60764 13.9049 8.51856 13.8497 8.44351 13.78L7.66862 13.06L6.89372 13.78C6.7407 13.9125 6.53832 13.9846 6.3292 13.9812C6.12009 13.9777 5.92057 13.899 5.77268 13.7616C5.62479 13.6242 5.54007 13.4388 5.53638 13.2445C5.53269 13.0502 5.61032 12.8622 5.7529 12.72L6.52779 12L5.7529 11.28C5.60174 11.1394 5.51683 10.9488 5.51683 10.75C5.51683 10.5512 5.60174 10.3606 5.7529 10.22ZM17.893 13.5C17.6789 13.5 17.4736 13.579 17.3222 13.7197C17.1708 13.8603 17.0858 14.0511 17.0858 14.25C17.0858 14.4489 17.1708 14.6397 17.3222 14.7803C17.4736 14.921 17.6789 15 17.893 15H19.7764C19.9905 15 20.1958 14.921 20.3472 14.7803C20.4985 14.6397 20.5836 14.4489 20.5836 14.25C20.5836 14.0511 20.4985 13.8603 20.3472 13.7197C20.1958 13.579 19.9905 13.5 19.7764 13.5H17.893ZM5.78518 5C4.85751 5 3.96783 5.34241 3.31187 5.9519C2.6559 6.5614 2.28738 7.38805 2.28738 8.25V15.75C2.28738 16.612 2.6559 17.4386 3.31187 18.0481C3.96783 18.6576 4.85751 19 5.78518 19H20.3145C20.7738 19 21.2287 18.9159 21.6531 18.7526C22.0774 18.5893 22.463 18.3499 22.7878 18.0481C23.1126 17.7463 23.3703 17.388 23.5461 16.9937C23.7218 16.5994 23.8123 16.1768 23.8123 15.75V8.25C23.8123 7.8232 23.7218 7.40059 23.5461 7.00628C23.3703 6.61197 23.1126 6.25369 22.7878 5.9519C22.463 5.65011 22.0774 5.41072 21.6531 5.24739C21.2287 5.08406 20.7738 5 20.3145 5H5.78518ZM3.90175 8.25C3.90175 7.283 4.74445 6.5 5.78518 6.5H20.3145C21.3552 6.5 22.1979 7.283 22.1979 8.25V15.75C22.1979 16.2141 21.9995 16.6592 21.6463 16.9874C21.2931 17.3156 20.814 17.5 20.3145 17.5H5.78518C5.28567 17.5 4.80661 17.3156 4.4534 16.9874C4.10019 16.6592 3.90175 16.2141 3.90175 15.75V8.25Z" fill="black"/>
</g>
</svg>
